# xmcd
#
# Track frame offsets: 
#        150
#        14297
#        33407
#        49634
#        69486
#        83948
#        99728
#        118856
#        129476
#        151320
#        171989
#
# Disc length: 2475 seconds
#
# Revision: 0
# Processed by: cddbd v1.5.2PL0 Copyright (c) Steve Scherf et al.
# Submitted via: ExactAudioCopyFreeDBPlugin 1.0
#
DISCID=8e09a90b
DTITLE=Wristshakers - Can you play this?
DYEAR=1996
DGENRE=Blues
TTITLE0=Voodoo
TTITLE1=You make me sweat
TTITLE2=I`m going home
TTITLE3=Hard life
TTITLE4=My gal from Kokomo
TTITLE5=Loose lips
TTITLE6=Listen to my words
TTITLE7=Open up that door
TTITLE8=You`re the one
TTITLE9=Come to me baby
TTITLE10=I want more
EXTD=
EXTT0=
EXTT1=
EXTT2=
EXTT3=
EXTT4=
EXTT5=
EXTT6=
EXTT7=
EXTT8=
EXTT9=
EXTT10=
PLAYORDER=
